<mxfile host="app.diagrams.net" modified="2023-03-03T07:42:28.109Z" agent="5.0 (Windows NT 10.0; Win64; x64) AppleWebKit/537.36 (KHTML, like Gecko) Chrome/110.0.0.0 Safari/537.36" etag="2C7XzJRAkvwJBDDDPgTn" version="20.8.23" type="github">
  <diagram name="第 1 页" id="VpfxJ_1Z6r13m5j0Sv9B">
    <mxGraphModel dx="1843" dy="632" grid="1" gridSize="10" guides="1" tooltips="1" connect="1" arrows="1" fold="1" page="1" pageScale="1" pageWidth="827" pageHeight="1169" math="0" shadow="0">
      <root>
        <mxCell id="0" />
        <mxCell id="1" parent="0" />
        <mxCell id="V3sIs0rUd8FAmSUnbhCm-5" value="" style="group" vertex="1" connectable="0" parent="1">
          <mxGeometry x="-180" y="110" width="140" height="80" as="geometry" />
        </mxCell>
        <mxCell id="V3sIs0rUd8FAmSUnbhCm-2" value="AppSever" style="rounded=1;whiteSpace=wrap;html=1;" vertex="1" parent="V3sIs0rUd8FAmSUnbhCm-5">
          <mxGeometry width="120" height="60" as="geometry" />
        </mxCell>
        <mxCell id="V3sIs0rUd8FAmSUnbhCm-3" value="AppSever" style="rounded=1;whiteSpace=wrap;html=1;" vertex="1" parent="V3sIs0rUd8FAmSUnbhCm-5">
          <mxGeometry x="10" y="10" width="120" height="60" as="geometry" />
        </mxCell>
        <mxCell id="V3sIs0rUd8FAmSUnbhCm-4" value="AppSever" style="rounded=1;whiteSpace=wrap;html=1;" vertex="1" parent="V3sIs0rUd8FAmSUnbhCm-5">
          <mxGeometry x="20" y="20" width="120" height="60" as="geometry" />
        </mxCell>
        <mxCell id="V3sIs0rUd8FAmSUnbhCm-9" value="" style="group" vertex="1" connectable="0" parent="1">
          <mxGeometry x="30" y="110" width="140" height="80" as="geometry" />
        </mxCell>
        <mxCell id="V3sIs0rUd8FAmSUnbhCm-6" value="Logstash Agent" style="rounded=1;whiteSpace=wrap;html=1;" vertex="1" parent="V3sIs0rUd8FAmSUnbhCm-9">
          <mxGeometry width="120" height="60" as="geometry" />
        </mxCell>
        <mxCell id="V3sIs0rUd8FAmSUnbhCm-7" value="Logstash Agent" style="rounded=1;whiteSpace=wrap;html=1;" vertex="1" parent="V3sIs0rUd8FAmSUnbhCm-9">
          <mxGeometry x="10" y="10" width="120" height="60" as="geometry" />
        </mxCell>
        <mxCell id="V3sIs0rUd8FAmSUnbhCm-8" value="Logstash Agent" style="rounded=1;whiteSpace=wrap;html=1;" vertex="1" parent="V3sIs0rUd8FAmSUnbhCm-9">
          <mxGeometry x="20" y="20" width="120" height="60" as="geometry" />
        </mxCell>
        <mxCell id="V3sIs0rUd8FAmSUnbhCm-14" value="" style="group" vertex="1" connectable="0" parent="1">
          <mxGeometry x="260" y="110" width="140" height="80" as="geometry" />
        </mxCell>
        <mxCell id="V3sIs0rUd8FAmSUnbhCm-15" value="Logstash Agent" style="rounded=1;whiteSpace=wrap;html=1;" vertex="1" parent="V3sIs0rUd8FAmSUnbhCm-14">
          <mxGeometry width="120" height="60" as="geometry" />
        </mxCell>
        <mxCell id="V3sIs0rUd8FAmSUnbhCm-16" value="Logstash Agent" style="rounded=1;whiteSpace=wrap;html=1;" vertex="1" parent="V3sIs0rUd8FAmSUnbhCm-14">
          <mxGeometry x="10" y="10" width="120" height="60" as="geometry" />
        </mxCell>
        <mxCell id="V3sIs0rUd8FAmSUnbhCm-17" value="ElasticSearch&lt;br&gt;Cluster" style="rounded=1;whiteSpace=wrap;html=1;" vertex="1" parent="V3sIs0rUd8FAmSUnbhCm-14">
          <mxGeometry x="20" y="20" width="120" height="60" as="geometry" />
        </mxCell>
        <mxCell id="V3sIs0rUd8FAmSUnbhCm-31" style="edgeStyle=orthogonalEdgeStyle;rounded=0;orthogonalLoop=1;jettySize=auto;html=1;entryX=0;entryY=0.5;entryDx=0;entryDy=0;" edge="1" parent="1" source="V3sIs0rUd8FAmSUnbhCm-22" target="V3sIs0rUd8FAmSUnbhCm-23">
          <mxGeometry relative="1" as="geometry" />
        </mxCell>
        <mxCell id="V3sIs0rUd8FAmSUnbhCm-32" value="图表" style="edgeLabel;html=1;align=center;verticalAlign=middle;resizable=0;points=[];" vertex="1" connectable="0" parent="V3sIs0rUd8FAmSUnbhCm-31">
          <mxGeometry x="-0.2969" relative="1" as="geometry">
            <mxPoint as="offset" />
          </mxGeometry>
        </mxCell>
        <mxCell id="V3sIs0rUd8FAmSUnbhCm-22" value="Kibana Server" style="rounded=1;whiteSpace=wrap;html=1;" vertex="1" parent="1">
          <mxGeometry x="450" y="130" width="120" height="60" as="geometry" />
        </mxCell>
        <mxCell id="V3sIs0rUd8FAmSUnbhCm-23" value="Browser" style="rounded=1;whiteSpace=wrap;html=1;" vertex="1" parent="1">
          <mxGeometry x="610" y="130" width="120" height="60" as="geometry" />
        </mxCell>
        <mxCell id="V3sIs0rUd8FAmSUnbhCm-25" style="edgeStyle=orthogonalEdgeStyle;rounded=0;orthogonalLoop=1;jettySize=auto;html=1;" edge="1" parent="1" source="V3sIs0rUd8FAmSUnbhCm-4" target="V3sIs0rUd8FAmSUnbhCm-8">
          <mxGeometry relative="1" as="geometry">
            <mxPoint x="-10" y="160" as="targetPoint" />
            <Array as="points" />
          </mxGeometry>
        </mxCell>
        <mxCell id="V3sIs0rUd8FAmSUnbhCm-27" value="收集数据" style="edgeLabel;html=1;align=center;verticalAlign=middle;resizable=0;points=[];" vertex="1" connectable="0" parent="V3sIs0rUd8FAmSUnbhCm-25">
          <mxGeometry x="-0.3025" y="-1" relative="1" as="geometry">
            <mxPoint x="6" y="-6" as="offset" />
          </mxGeometry>
        </mxCell>
        <mxCell id="V3sIs0rUd8FAmSUnbhCm-26" style="edgeStyle=orthogonalEdgeStyle;rounded=0;orthogonalLoop=1;jettySize=auto;html=1;entryX=0;entryY=0.5;entryDx=0;entryDy=0;exitX=1;exitY=0.5;exitDx=0;exitDy=0;" edge="1" parent="1" source="V3sIs0rUd8FAmSUnbhCm-8" target="V3sIs0rUd8FAmSUnbhCm-17">
          <mxGeometry relative="1" as="geometry">
            <Array as="points">
              <mxPoint x="260" y="160" />
              <mxPoint x="260" y="160" />
            </Array>
          </mxGeometry>
        </mxCell>
        <mxCell id="V3sIs0rUd8FAmSUnbhCm-28" value="分析/过滤数据" style="edgeLabel;html=1;align=center;verticalAlign=middle;resizable=0;points=[];" vertex="1" connectable="0" parent="V3sIs0rUd8FAmSUnbhCm-26">
          <mxGeometry x="-0.1602" y="1" relative="1" as="geometry">
            <mxPoint as="offset" />
          </mxGeometry>
        </mxCell>
        <mxCell id="V3sIs0rUd8FAmSUnbhCm-29" style="edgeStyle=orthogonalEdgeStyle;rounded=0;orthogonalLoop=1;jettySize=auto;html=1;" edge="1" parent="1" source="V3sIs0rUd8FAmSUnbhCm-17" target="V3sIs0rUd8FAmSUnbhCm-22">
          <mxGeometry relative="1" as="geometry" />
        </mxCell>
        <mxCell id="V3sIs0rUd8FAmSUnbhCm-30" value="搜索" style="edgeLabel;html=1;align=center;verticalAlign=middle;resizable=0;points=[];" vertex="1" connectable="0" parent="V3sIs0rUd8FAmSUnbhCm-29">
          <mxGeometry x="-0.271" y="-1" relative="1" as="geometry">
            <mxPoint x="4" y="-1" as="offset" />
          </mxGeometry>
        </mxCell>
      </root>
    </mxGraphModel>
  </diagram>
</mxfile>
